<svg 
          width="35" 
          height="35" fill="none" 
          xmlns="http://www.w3.org/2000/svg">
          <path d="M 25.014294209566472 22.012578904418497 L 23.43339089185944 22.012578904418497 L 22.873071235928126 21.472269233441047 C 24.83419194012692 19.190965630155173 26.014865977949132 16.229274111793316 26.014865977949132 13.007432988974566 C 26.014865977949132 5.823327863746602 20.19153811420253 0 13.007432988974566 0 C 5.823327863746602 0 0 5.823327863746602 0 13.007432988974566 C 0 20.19153811420253 5.823327863746602 26.014865977949132 13.007432988974566 26.014865977949132 C 16.229274111793316 26.014865977949132 19.190965630155173 24.83419194012692 21.472269233441047 22.873071235928126 L 22.012578904418497 23.43339089185944 L 22.012578904418497 25.014294209566472 L 32.018296588245086 35 L 35 32.018296588245086 L 25.014294209566472 22.012578904418497 L 25.014294209566472 22.012578904418497 Z M 13.007432988974566 22.012578904418497 C 8.024585563344534 22.012578904418497 4.002287073530636 17.990280414604598 4.002287073530636 13.007432988974566 C 4.002287073530636 8.024585563344534 8.024585563344534 4.002287073530636 13.007432988974566 4.002287073530636 C 17.990280414604598 4.002287073530636 22.012578904418497 8.024585563344534 22.012578904418497 13.007432988974566 C 22.012578904418497 17.990280414604598 17.990280414604598 22.012578904418497 13.007432988974566 22.012578904418497 Z" fill="rgb(0,0,0)"/>
        </svg>