<svg 
          width="35" 
          height="35" fill="none" 
          xmlns="http://www.w3.org/2000/svg">
          <path d="M 11.666666666666666 15.75 L 7.777777777777778 15.75 L 7.777777777777778 19.25 L 11.666666666666666 19.25 L 11.666666666666666 15.75 Z M 19.444444444444443 15.75 L 15.555555555555555 15.75 L 15.555555555555555 19.25 L 19.444444444444443 19.25 L 19.444444444444443 15.75 Z M 27.22222222222222 15.75 L 23.333333333333332 15.75 L 23.333333333333332 19.25 L 27.22222222222222 19.25 L 27.22222222222222 15.75 Z M 31.11111111111111 3.5 L 29.166666666666668 3.5 L 29.166666666666668 0 L 25.27777777777778 0 L 25.27777777777778 3.5 L 9.722222222222221 3.5 L 9.722222222222221 0 L 5.833333333333333 0 L 5.833333333333333 3.5 L 3.888888888888889 3.5 C 1.7305555277400546 3.5 0.01944442590077718 5.074999958276749 0.01944442590077718 7 L 0 31.5 C 0 33.42500004172325 1.7305555277400546 35 3.888888888888889 35 L 31.11111111111111 35 C 33.25000004635917 35 35 33.42500004172325 35 31.5 L 35 7 C 35 5.074999958276749 33.25000004635917 3.5 31.11111111111111 3.5 Z M 31.11111111111111 31.5 L 3.888888888888889 31.5 L 3.888888888888889 12.25 L 31.11111111111111 12.25 L 31.11111111111111 31.5 Z" fill="rgb(0,0,0)"/>
        </svg>